<?xml version="1.0" encoding="UTF-8" standalone="no"?>
<!-- Created with Inkscape (http://www.inkscape.org/) -->

<svg
   xmlns:dc="http://purl.org/dc/elements/1.1/"
   xmlns:cc="http://creativecommons.org/ns#"
   xmlns:rdf="http://www.w3.org/1999/02/22-rdf-syntax-ns#"
   xmlns:svg="http://www.w3.org/2000/svg"
   xmlns="http://www.w3.org/2000/svg"
   xmlns:sodipodi="http://sodipodi.sourceforge.net/DTD/sodipodi-0.dtd"
   xmlns:inkscape="http://www.inkscape.org/namespaces/inkscape"
   width="11in"
   height="8.5in"
   viewBox="0 0 279.4 215.9"
   version="1.1"
   id="svg4721"
   inkscape:version="0.92.5 (2060ec1f9f, 2020-04-08)"
   sodipodi:docname="my_hand.svg">
  <defs
     id="defs4715" />
  <sodipodi:namedview
     id="base"
     pagecolor="#ffffff"
     bordercolor="#666666"
     borderopacity="1.0"
     inkscape:pageopacity="0.0"
     inkscape:pageshadow="2"
     inkscape:zoom="0.49497475"
     inkscape:cx="673.04306"
     inkscape:cy="146.80532"
     inkscape:document-units="mm"
     inkscape:current-layer="layer1"
     showgrid="false"
     units="in"
     inkscape:window-width="1920"
     inkscape:window-height="1043"
     inkscape:window-x="2880"
     inkscape:window-y="0"
     inkscape:window-maximized="1" />
  <metadata
     id="metadata4718">
    <rdf:RDF>
      <cc:Work
         rdf:about="">
        <dc:format>image/svg+xml</dc:format>
        <dc:type
           rdf:resource="http://purl.org/dc/dcmitype/StillImage" />
        <dc:title></dc:title>
      </cc:Work>
    </rdf:RDF>
  </metadata>
  <g
     inkscape:label="Layer 1"
     inkscape:groupmode="layer"
     id="layer1"
     transform="translate(0,-81.1)">
    <path
       style="fill:none;fill-rule:evenodd;stroke:#ff0000;stroke-width:0.52916667;stroke-linecap:butt;stroke-linejoin:miter;stroke-opacity:1;stroke-miterlimit:4;stroke-dasharray:none"
       d="m 33.332332,85.561701 c 0.352507,0.29375 3.709585,87.413089 -0.854951,101.312369 -0.950848,2.89539 4.839775,-0.50056 7.72294,-3.63502 5.402031,-3.94864 5.062937,0.50969 3.288737,4.0354 -4.428517,14.9306 -12.935631,46.896 -2.560998,52.5308 5.525653,3.00117 15.379334,-7.33123 15.286557,-3.86463 -0.208641,7.7956 -3.348106,7.03452 -6.240499,13.62157 -3.317924,7.55613 -26.782664,25.83018 -26.726508,8.02363 0.01855,-5.88807 -1.70368,-25.7157 1.759022,-42.02806 0.431223,-2.03143 4.359265,-9.67956 6.253671,-12.86871 8.700856,-14.64749 -1.095009,-13.7581 -0.753992,2.99116 0.534268,26.24027 -2.304601,60.48655 12.297351,59.53438 6.346411,-0.41385 -0.07321,19.58654 1.92811,30.95144"
       id="path839-3"
       inkscape:connector-curvature="0"
       sodipodi:nodetypes="csccssssssssc" />
    <path
       style="fill:none;fill-rule:evenodd;stroke:#ff0000;stroke-width:0.52916667;stroke-linecap:butt;stroke-linejoin:miter;stroke-opacity:1;stroke-miterlimit:4;stroke-dasharray:none"
       d="m 49.006553,83.851786 c 1.702007,40.557694 0.949085,73.081614 0.185697,85.562834 -0.763379,12.48121 -3.471674,12.32064 10.620529,2.6849 7.95904,-5.4421 4.232257,9.43514 7.582586,31.86751 2.594663,17.37272 -3.91006,34.9741 -6.406706,50.28285 -2.236795,13.71546 -1.924882,27.98539 -2.007608,40.49123"
       id="path841-6"
       inkscape:connector-curvature="0"
       sodipodi:nodetypes="czsssc" />
    <path
       style="fill:none;fill-rule:evenodd;stroke:#14ca00;stroke-width:0.5291667;stroke-linecap:butt;stroke-linejoin:miter;stroke-miterlimit:4;stroke-dasharray:none;stroke-opacity:1"
       d="m 152.95984,83.159943 c -0.16833,13.061418 0.53952,53.199487 -0.43107,66.915447 -0.27038,3.821 -10.11383,2.04793 -6.01742,-0.11315 2.39301,-1.26243 6.27118,4.24795 19.43801,6.07828 8.75001,1.21634 17.961,-2.40908 20.36125,-1.14115 10.29643,4.44968 -2.51301,-0.72986 26.06655,11.64193 3.40093,1.47223 7.672,1.61153 12.19219,2.50254 2.74961,0.54201 4.78211,4.05041 6.87013,5.83911 2.26356,1.93908 1.07196,1.79029 5.96437,5.26183 4.51793,3.20581 3.33587,2.92522 7.5564,6.03131 0.37191,0.27371 0.99354,0.89096 1.20039,1.41913 2.70219,6.8997 7.35928,13.8665 4.18143,14.20681 -3.17784,0.34032 -9.80298,-1.70511 -11.93764,-6.00482 -2.50019,-1.93148 -5.00039,-4.06265 -7.5006,-4.96819 -3.19331,-3.34392 -6.38662,-4.96827 -9.57995,-6.60919 -3.24495,-2.59231 2.05384,-6.87439 0.45341,-3.32499 0.25609,0.13557 -0.39198,4.08476 -2.87159,3.72803 -2.47961,-0.35673 -12.60545,-2.78039 -10.15242,-4.09054 0,0 2.09374,2.4819 -0.42835,1.20463 -0.87503,-0.44314 -1.84956,-0.57272 -2.30171,-1.153 -3.21929,-4.13149 -0.49645,-5.54202 -0.0606,-3.7878 0.44102,1.77491 1.47483,5.6524 -1.77348,5.94526 -2.51704,0.22693 -5.64653,-1.80057 -7.88601,-2.62926 -2.47067,-0.91422 -3.59595,-0.64983 -4.60265,-2.33991 -1.0083,-1.69277 0.59047,-3.0244 1.1507,-1.26333 1.68925,5.31012 -0.90144,4.53148 -3.49351,2.19265 -0.84735,-0.76456 -3.28964,-1.48908 -3.46922,-2.68987 -0.17718,-1.18471 0.043,-1.59998 -0.32421,-2.17687 -1.21508,-1.90918 -3.20273,-0.0746 -0.23669,2.97772 0.7274,0.74857 1.35334,1.91869 2.43058,3.10458 1.04282,1.148 4.23782,0.40424 3.37864,0.7938 -0.67015,0.30385 -0.94115,-0.76723 -1.04848,0.0755 -0.20378,1.59986 1.19795,4.8089 -0.60956,5.25008 -1.13096,2.52997 -0.14687,-2.10368 -2.35401,-1.65053 l -2.7859,-0.007 c -1.04123,0.12625 -2.86811,-1.05537 -3.29051,-2.20606 -1.23292,-3.35867 -1.68833,-0.48002 -1.9922,0.71772 l -0.80714,2.4553 c -0.3314,0.74359 -1.21252,1.02209 -2.61866,0.68976 l -0.92415,0.63279 c -0.38098,0.90949 -0.78638,2.48069 -0.50173,7.32719 0.0925,1.57533 -1.3195,3.17279 -1.56628,4.2906 -0.093,0.42122 -0.22631,1.7235 -0.47677,3.00165 -0.23756,1.21236 0.12213,1.85921 -0.23469,2.78236 -0.5341,1.38178 -1.79858,2.57017 -2.05803,0.68562 -0.12299,-0.89338 0.51602,-2.74697 0.40559,-4.80034 -0.066,-1.22813 0.26243,-2.23362 0.0776,-3.0172 -0.4522,-1.9167 -1.81411,-1.962 -1.28122,-0.36081 0.43361,1.30291 -1.65756,9.54538 -2.57479,-0.84312 -0.70524,-7.98752 -5.93695,-2.1052 -1.45596,4.9154 0.83901,1.31452 3.36213,5.99891 7.4848,9.46025 6.43017,5.3987 15.03965,10.41788 18.33014,15.17302 1.12273,1.62247 6.91142,13.95882 -5.8063,8.40029 -3.59166,-2.49581 -9.29052,-5.64654 -14.12705,-7.31179 -8.421,-2.89939 -8.66756,-12.81559 -3.14136,-6.57441 5.5262,6.24119 -4.44027,3.30617 -8.31751,-0.33204 -1.77566,-1.66619 -3.79057,-2.69821 -5.28024,-3.81544 -4.14813,-3.11106 -8.79515,-9.49623 -8.79515,-9.49623 -0.75545,-0.0492 -0.15559,4.41772 4.07352,9.85993 2.62824,1.86132 10.87721,2.72643 8.53698,12.64064 0.77463,24.95503 -0.727,40.765 -0.90682,61.66363"
       id="path874-7"
       inkscape:connector-curvature="0"
       sodipodi:nodetypes="cssscsssssszcccczssssssssssssssscccsccccsssssssssssscszsssccc" />
    <path
       style="fill:none;fill-rule:evenodd;stroke:#fb0000;stroke-width:0.52916667;stroke-linecap:butt;stroke-linejoin:miter;stroke-opacity:1;stroke-miterlimit:4;stroke-dasharray:none"
       d="m 170.98038,82.14187 -0.1425,71.2464 c -2.35593,8.64899 5.51409,11.65644 9.68951,11.47066 4.17543,-0.18577 5.32574,-1.17493 6.51503,-2.42237 1.1893,-1.24745 -2.84797,-6.66246 -5.5804,-5.37954 -2.73243,1.28291 -0.69927,4.27689 1.46207,3.32056 1.25871,-1.68336 0.69776,-2.97607 -2.93998,0.17183 -0.36921,0.33873 -3.02668,0.85591 -3.43776,0.81548 -8.0887,-0.79559 -5.24535,-0.78961 -8.65192,-0.86927 -2.69183,-0.063 -2.8455,1.38608 -0.57608,2.54758 2.26942,1.1615 3.38344,1.21331 5.47298,2.17077 2.08954,0.95747 1.87916,3.46838 4.17374,11.72123 0.97461,3.50537 2.05714,6.48864 3.22764,9.10614 0.93661,2.09444 1.9808,3.82654 2.69141,6.35387 0.0342,0.12155 1.09386,-0.66611 1.81287,-2.29737 0.71901,-1.63128 6.09481,0.93401 9.0314,-8.09569 0.55499,-1.70656 6.40183,1.11658 12.22269,6.03822 3.37437,2.85309 7.26037,6.26951 8.74919,10.28636 2.34622,6.33006 1.57739,15.65783 1.88866,22.10994 0.67344,13.95982 -4.19283,10.37012 -7.31417,6.38811 -1.86242,-2.37594 -1.64863,-6.90684 -2.39459,-9.09309 -0.75448,-2.21124 -1.5684,-11.91107 -3.58142,-12.6605 -2.01303,-0.74943 -10.21674,-6.70431 -15.18103,-12.66847 -2.54039,-3.05205 -5.34142,-4.55266 -6.58387,-5.28094 m 0,0 c -0.0316,0.47117 -0.51161,0.22463 -0.53796,0.68856 -0.23008,4.05145 -0.59447,8.41139 -0.92868,11.51336 -0.66198,6.14423 -0.79619,7.75715 -2.06025,10.30048 -1.30604,2.6278 -3.76049,6.10932 -5.59575,7.77858 -5.03193,4.57679 -7.09388,8.26566 -7.91714,8.11183 -4.06874,-0.76028 -3.12475,-8.90747 -0.21381,-14.12466 0.87266,-1.56404 2.22127,-4.09235 4.51701,-6.53778 5.11776,-5.45144 12.65666,-11.37944 12.5509,-12.12522 -0.13878,-0.97873 -1.61588,-1.0081 -2.01641,-1.23356 -0.82852,-0.46637 -1.76872,-1.25205 -2.72292,-2.41066 -2.90923,-3.7885 -1.88775,2.741 -0.56997,3.56232 1.31778,0.82131 6.41218,1.13774 6.41218,1.42493 0.68534,4.10035 -0.36221,8.60104 5.20098,11.95642 3.31268,1.85303 6.37716,2.77767 8.43869,1.23787 2.06153,-1.53981 2.53182,-3.09807 2.10936,-3.97832 -0.42246,-0.88025 -1.54162,-1.50966 -1.42851,0.97226 0.0861,1.22978 1.34733,2.52149 3.56232,1.21119 2.21498,-1.3103 2.77504,2.65439 3.95164,6.48342 1.1766,3.82904 -0.43292,7.99731 -2.52672,8.26459 -2.09379,0.26727 -6.50305,-0.81844 -7.40962,-5.34349 -0.90658,-4.52505 0.22163,-5.01117 -0.56997,-7.6946 -0.21149,-0.71694 -2.17669,-0.60125 -4.693,-2.06271 -3.46595,-1.79498 -4.14546,-2.11437 -6.18892,-5.14751 -1.69798,-0.93284 -1.96259,-6.56025 0.0525,11.69874 0.53404,4.8391 -0.39283,8.04802 -0.88622,11.18912 -1.29813,8.26445 -1.63711,12.38337 -1.32242,11.60972 -1.44334,18.87932 -2.88883,37.76221 -3.77605,55.71467"
       id="path910-5"
       inkscape:connector-curvature="0"
       sodipodi:nodetypes="cczzzccsszzssszsssssszsccsssssssssczcczzczzzzsccsscc" />
    <path
       style="fill:none;fill-rule:evenodd;stroke:#0404ff;stroke-width:0.52916667;stroke-linecap:butt;stroke-linejoin:miter;stroke-opacity:1;stroke-miterlimit:4;stroke-dasharray:none"
       d="m 205.55532,84.167521 c 0.0893,11.711776 -0.84204,31.158979 -0.0664,45.993799 1.48709,28.44286 2.25954,52.36764 -1.74722,55.26254 -0.75634,0.17432 -1.7362,-0.0756 -2.83731,-0.008 -6.20158,0.38134 -14.87399,1.48772 -5.52557,10.18944 -0.0182,0.14535 3.05151,2.09463 4.23497,3.23131 1.18348,1.13668 2.56469,2.72091 2.56469,2.70832 8.33036,5.19851 3.64115,-15.37098 3.06383,-0.74188 0.0801,1.1515 -0.98083,1.94056 -0.38588,3.23008 2.05654,4.45745 2.07476,10.6901 2.89217,12.74454 0.81741,2.05443 3.64531,1.36254 4.30307,3.29445 0.65776,1.9319 -4.39875,-1.22549 -3.93566,0.67474 0.4631,1.90023 -1.88679,7.82628 -3.95208,9.02139 -2.06528,1.1951 3.97329,4.26752 2.32774,-4.06278 -1.64557,-8.33032 -2.30066,-7.38396 -6.34162,-7.23325 -4.04096,0.15071 -4.41539,5.16962 -3.0594,8.05956 1.35599,2.88994 3.355,2.8777 4.23287,4.74172 0.87787,1.86404 -3.44625,59.18257 -3.22425,59.04396"
       id="path912-3"
       inkscape:connector-curvature="0"
       sodipodi:nodetypes="cscsczccszzzzzzzzc" />
    <path
       style="fill:none;fill-rule:evenodd;stroke:#00ff00;stroke-width:0.52916667;stroke-linecap:butt;stroke-linejoin:miter;stroke-opacity:1;stroke-miterlimit:4;stroke-dasharray:none"
       d="m 190.03864,83.361459 c 0.36346,0.142901 -0.47501,57.484831 -0.20739,69.021441 -0.40033,8.91935 1.49087,9.68722 9.5159,12.10254 1.97575,0.59464 6.88393,1.78425 10.74179,3.9794 2.06819,1.17682 2.7179,3.91697 5.54877,3.14912 -0.11926,-0.055 4.7325,-3.28939 4.79641,-1.5943 0.0478,1.26825 0.54475,4.28241 1.61364,2.67713 2.78931,-4.18911 1.49232,-0.12368 1.04582,-0.75602 -0.82898,-2.73849 1.46386,-0.67076 1.78061,-0.28307 2.69415,2.37065 0.41908,4.17643 -1.2427,1.28694 -1.6618,-2.8895 1.84013,-1.05539 0.4061,0.0114 -1.43402,1.06679 -0.24132,-4.08299 0.11175,0.40297 0.3531,4.48596 -0.33171,5.95825 -0.50812,14.48755 -0.2105,10.17789 -0.56244,24.64071 -0.41881,38.63813 0.22158,21.59335 -0.58887,43.90276 -1.14284,63.22839"
       id="path914-5"
       inkscape:connector-curvature="0"
       sodipodi:nodetypes="ccsscsscczzzssc" />
    <path
       style="fill:none;stroke:#000000;stroke-width:0.52916667;stroke-linecap:butt;stroke-linejoin:miter;stroke-opacity:1;stroke-miterlimit:4;stroke-dasharray:none"
       d="m 64.965756,83.566797 c 1.632353,1.226684 3.908612,88.544123 1.257973,87.063093 -1.050155,-0.58676 16.074282,-8.84841 16.73197,-6.55689 1.871553,6.52091 4.038032,36.62131 -4.168343,54.4161 -7.559621,16.39236 -15.202955,21.56504 -27.796025,39.82991 -5.701216,10.66658 25.867893,-27.35476 27.370834,-32.33066 0.301584,6.5314 -2.012939,65.73634 -2.851942,65.33293"
       id="path4582-6"
       inkscape:connector-curvature="0"
       sodipodi:nodetypes="csssccc" />
    <path
       style="fill:none;stroke:#000000;stroke-width:0.52916667;stroke-linecap:butt;stroke-linejoin:miter;stroke-opacity:1;stroke-miterlimit:4;stroke-dasharray:none"
       d="m 84.845589,83.851786 c -0.454272,25.857084 2.489626,53.660044 -0.215834,77.516084 -16.412569,8.8176 32.139165,25.84842 1.560251,55.85717 -1.485012,1.45732 2.824898,-15.45092 6.419335,-13.96429 6.309307,-2.11121 -1.41318,60.23907 -0.40006,87.74097"
       id="path4584-2"
       inkscape:connector-curvature="0"
       sodipodi:nodetypes="ccscc" />
    <path
       style="fill:none;stroke:#000000;stroke-width:0.52916667;stroke-linecap:butt;stroke-linejoin:miter;stroke-opacity:1;stroke-miterlimit:4;stroke-dasharray:none"
       d="M 103.38709,83.76449 Z"
       id="path4586-9"
       inkscape:connector-curvature="0" />
    <path
       style="fill:none;stroke:#000000;stroke-width:0.52916667;stroke-linecap:butt;stroke-linejoin:miter;stroke-opacity:1;stroke-miterlimit:4;stroke-dasharray:none"
       d="m 103.38709,83.76449 c -1.03447,0.517236 1.31308,57.38352 -0.2015,70.02654 -19.373509,19.69184 -13.897249,-0.24534 -2.23375,1.31312 22.78269,3.04417 5.4908,135.33848 9.38752,137.0271"
       id="path4594-1"
       inkscape:connector-curvature="0"
       sodipodi:nodetypes="ccsc" />
    <path
       style="fill:none;stroke:#000000;stroke-width:0.52916667;stroke-linecap:butt;stroke-linejoin:miter;stroke-opacity:1;stroke-miterlimit:4;stroke-dasharray:none"
       d="m 121.01968,82.051611 c 0.0161,0.225741 0.61167,65.049729 -0.10076,63.981089 -9.29513,12.10933 -21.040828,6.26853 1.62538,1.90058 8.19448,-1.57915 12.9306,-11.55693 -1.0712,0.11457 -1.16319,-1.85441 -1.21053,16.13503 3.02271,19.74849 1.01992,4.09922 5.2732,12.57966 1.14389,17.99562 -53.177138,37.89905 5.911,-28.73501 1.52569,24.0509 -4.3853,52.78591 -2.05182,81.04635 -2.14753,80.76897"
       id="path4596-2"
       inkscape:connector-curvature="0"
       sodipodi:nodetypes="ccsccczc" />
    <path
       style="fill:none;stroke:#000000;stroke-width:0.52916667;stroke-linecap:butt;stroke-linejoin:miter;stroke-opacity:1;stroke-miterlimit:4;stroke-dasharray:none"
       d="m 135.62953,82.353889 c -1.25177,19.358231 -0.80741,50.917601 0.82526,63.335961 0.54662,4.1577 7.29208,4.45303 5.83697,4.14719 -11.48194,-2.4133 -15.36848,15.72464 -2.91692,39.69221 0.0883,2.51284 0.66043,4.37966 0.50026,6.31973 -3.20587,38.83229 -25.26826,-27.89065 -0.42901,-3.39862 0.56442,0.55653 0.78612,0.97559 0.98075,1.67981 1.39653,4.28243 5.21696,20.61567 -0.10181,18.01341 -4.2849,-2.75985 0.74353,-1.58415 2.47476,-0.17653 1.73123,1.40763 0.86111,52.96455 0.89035,78.35056"
       id="path4600-7"
       inkscape:connector-curvature="0"
       sodipodi:nodetypes="csscsscczc" />
    <path
       style="fill:none;stroke:#000000;stroke-width:0.52916667;stroke-linecap:butt;stroke-linejoin:miter;stroke-opacity:1;stroke-miterlimit:4;stroke-dasharray:none"
       d="m 223.55009,86.903156 c -2.06403,5.261806 1.04284,18.918054 0.0158,28.103794 -2.17944,19.49045 0.22174,39.2557 -0.78928,51.34816 -1.76096,2.93219 -6.41304,12.50982 6.19845,12.61062 2.96011,0.0237 8.55153,7.14847 10.59355,12.13384 1.03091,2.51683 -3.67132,-2.97106 -4.08514,-1.42954 -0.41383,1.54151 2.19252,2.08007 3.75633,3.29638 1.10803,2.51575 -1.7231,4.41568 -1.54771,7.03433 -0.31994,31.8816 -0.32323,60.36767 -0.16746,89.96686"
       id="path4602-0"
       inkscape:connector-curvature="0"
       sodipodi:nodetypes="cscsczccc" />
    <path
       style="fill:none;stroke:#000000;stroke-width:0.52916667;stroke-linecap:butt;stroke-linejoin:miter;stroke-opacity:1;stroke-miterlimit:4;stroke-dasharray:none"
       d="m 240.01442,85.376615 c 0.61183,6.956024 -1.87866,96.408705 -1.74955,95.109075 0.34571,-0.14208 1.78929,1.28377 1.48225,2.99532 -0.44509,2.48112 1.2904,5.61056 2.68549,5.87746 2.31698,0.44328 2.88117,-2.75892 1.53983,-2.22784 -1.34138,0.53108 -0.26052,2.99383 0.67683,3.23542 1.45577,0.34828 5.74509,6.75473 6.30705,8.06061"
       id="path4606-9"
       inkscape:connector-curvature="0"
       sodipodi:nodetypes="ccsszcc" />
    <path
       style="fill:none;stroke:#000000;stroke-width:0.52916667;stroke-linecap:butt;stroke-linejoin:miter;stroke-opacity:1;stroke-miterlimit:4;stroke-dasharray:none"
       d="m 253.91118,86.70164 c -1.48839,47.03976 -0.26787,99.50162 -1.31755,112.50589 -0.0466,0.57742 0.0476,59.91394 0.74757,89.83386"
       id="path4608-3"
       inkscape:connector-curvature="0"
       sodipodi:nodetypes="csc" />
    <path
       style="fill:none;stroke:#000000;stroke-width:0.52916667;stroke-linecap:butt;stroke-linejoin:miter;stroke-opacity:1;stroke-miterlimit:4;stroke-dasharray:none"
       d="m 265.31059,86.416659 c 1.42067,0.49562 4.26561,90.391071 1.70993,134.513191 -1.34724,23.25897 -1.56013,71.77368 -1.42493,71.81637"
       id="path4610-6"
       inkscape:connector-curvature="0"
       sodipodi:nodetypes="csc" />
  </g>
</svg>
